<?xml version="1.0" encoding="UTF-8" standalone="no"?>
<svg xmlns:dc="http://purl.org/dc/elements/1.1/" xmlns:cc="http://creativecommons.org/ns#" xmlns:rdf="http://www.w3.org/1999/02/22-rdf-syntax-ns#" xmlns:svg="http://www.w3.org/2000/svg" xmlns="http://www.w3.org/2000/svg" xmlns:sodipodi="http://sodipodi.sourceforge.net/DTD/sodipodi-0.dtd" xmlns:inkscape="http://www.inkscape.org/namespaces/inkscape" version="1.1" id="svg2" xml:space="preserve" width="1440" height="1440" viewBox="0 0 1440 1440" sodipodi:docname="Baseus.ai"><metadata id="metadata8"><rdf:RDF><cc:Work rdf:about=""><dc:format>image/svg+xml</dc:format><dc:type rdf:resource="http://purl.org/dc/dcmitype/StillImage"/></cc:Work></rdf:RDF></metadata><defs id="defs6"><clipPath clipPathUnits="userSpaceOnUse" id="clipPath18"><path d="M 0,1080 H 1080 V 0 H 0 Z" id="path16"/></clipPath></defs><sodipodi:namedview pagecolor="#ffffff" bordercolor="#666666" borderopacity="1" objecttolerance="10" gridtolerance="10" guidetolerance="10" inkscape:pageopacity="0" inkscape:pageshadow="2" inkscape:window-width="640" inkscape:window-height="480" id="namedview4"/><g id="g10" inkscape:groupmode="layer" inkscape:label="Baseus" transform="matrix(1.3333333,0,0,-1.3333333,0,1440)"><g id="g12"><g id="g14" clip-path="url(#clipPath18)"><g id="g20" transform="translate(316.3437,579.3813)"><path d="m 0,0 c 0,0.088 0,0.176 0,0.264 -6.76,0 -13.519,-0.012 -20.278,0.006 -2.429,0.005 -4.478,-0.157 -4.44,-3.506 0.104,-9.387 0.058,-18.775 0.022,-28.163 -0.009,-2.116 0.918,-3.171 3.015,-3.122 14.621,0.342 29.323,-1.32 43.849,0.891 10.054,1.53 15.529,8.445 15.047,17.3 C 36.711,-7.088 30.37,-0.729 20.265,-0.082 13.536,0.349 6.757,0 0,0 m 0.79,-106.889 v 0.18 c 7.122,0 14.26,-0.297 21.363,0.07 10.415,0.538 19.012,9.224 19.438,19.084 0.526,12.173 -5.987,20.651 -17.473,22.301 -15.108,2.17 -30.322,0.575 -45.481,0.995 -3.383,0.092 -3.982,-1.978 -3.972,-4.757 0.039,-10.873 0.108,-21.748 -0.036,-32.619 -0.052,-3.905 1.554,-5.369 5.352,-5.293 6.934,0.137 13.872,0.039 20.809,0.039 m -62.465,56.416 c 10e-4,29.303 -0.012,58.605 0.009,87.909 0.006,8.143 0.374,8.368 7.705,5.541 17.89,-6.9 36.646,-9.28 55.585,-11.039 12.137,-1.127 24.44,0.116 36.442,-2.711 16.533,-3.895 27.081,-14.294 31.569,-30.387 4.529,-16.238 0.199,-30.507 -11.988,-42.106 -3.143,-2.991 -4.059,-4.321 0.186,-7.273 17.729,-12.325 25.077,-32.854 19.217,-52.286 -6.049,-20.056 -23.707,-33.849 -45.288,-34.514 -20.829,-0.643 -41.67,-0.719 -62.378,-3.478 -8.006,-1.066 -15.978,-2.265 -23.818,-4.251 -6.502,-1.646 -7.202,-1.18 -7.215,5.56 -0.052,27.048 -0.025,54.096 -0.027,81.145 0,2.63 0,5.26 0.001,7.89" style="fill:#000000;fill-opacity:1;fill-rule:nonzero;stroke:none" id="path22"/></g><g id="g24" transform="translate(487.7246,496.8018)"><path d="m 0,0 c 0,1.313 -0.102,2.636 0.019,3.938 0.409,4.404 -1.043,4.59 -4.664,2.675 -7.218,-3.819 -15.24,-5.096 -23.236,-6.248 -5.402,-0.778 -10.752,-1.815 -15.752,-4.038 -6.104,-2.714 -9.323,-8.056 -8.633,-13.786 0.639,-5.308 4.345,-8.621 11.292,-10.06 1.468,-0.303 2.946,-0.648 4.434,-0.753 C -13.71,-29.886 0.409,-21.955 0,0 m 36.216,1.382 c 0,-11.366 0.013,-21.321 -0.004,-31.277 -0.012,-8.122 1.223,-15.765 7.922,-21.403 0.7,-0.589 1.541,-1.24 0.988,-2.336 -0.503,-0.993 -1.556,-0.988 -2.465,-0.985 -10.515,0.03 -21.039,-0.138 -31.542,0.256 -4.79,0.178 -7.693,3.75 -9.289,8.017 -1.336,3.575 -2.982,3.565 -5.818,1.547 -16.119,-11.466 -34.247,-11.53 -52.45,-7.882 -16.448,3.298 -25.579,14.303 -26.87,29.858 -1.442,17.403 6.428,30.588 22.481,37.844 13.721,6.201 28.489,8 43.116,10.408 4.088,0.673 8.142,1.48 11.934,3.202 5.445,2.472 6.886,5.652 4.959,11.347 -0.649,1.916 -1.602,3.86 -2.878,5.412 -8.394,10.213 -31.584,9.319 -38.486,-1.914 -4.317,-7.027 -9.947,-9.624 -17.774,-9.273 -6.186,0.278 -12.395,0.005 -18.592,0.131 -2.002,0.04 -4.914,0.176 -2.777,3.412 5.066,7.668 10.072,15.408 15.673,22.68 6.56,8.516 15.565,13.536 26.157,15.287 17.658,2.919 35.198,2.877 52.133,-3.833 14.379,-5.697 21.61,-16.687 22.945,-31.927 1.167,-13.32 0.257,-26.658 0.637,-38.571" style="fill:#000000;fill-opacity:1;fill-rule:nonzero;stroke:none" id="path26"/></g><g id="g28" transform="translate(731.6865,521.2236)"><path d="m 0,0 v -0.02 c 5.822,0 11.646,-0.019 17.469,0.004 8.046,0.034 9.913,2.78 7.166,10.483 -5.772,16.182 -27.178,22.77 -41.096,12.605 -5.418,-3.957 -8.685,-9.283 -9.497,-15.987 -0.561,-4.619 1.264,-7.177 6.235,-7.107 C -13.149,0.069 -6.574,0 0,0 m 13.814,-22.943 c -11.267,0 -22.537,-0.126 -33.801,0.06 -4.68,0.077 -6.289,-1.878 -6.246,-6.394 0.108,-11.216 6.599,-20.056 17.531,-22.528 15.985,-3.615 24.704,-0.617 31.461,11.39 1.508,2.68 3.91,4.115 6.922,4.149 9.386,0.105 18.776,0.085 28.165,0.075 1.09,-10e-4 2.415,0.106 2.929,-1.163 0.523,-1.291 -0.568,-2.105 -1.356,-2.815 -3.691,-3.326 -6.277,-7.484 -8.69,-11.718 -10.12,-17.754 -25.678,-26.397 -45.759,-27.028 -17.948,-0.564 -34.235,4.381 -47.639,16.738 -16.216,14.949 -20.741,34.277 -19.36,55.373 0.767,11.723 3.863,22.949 10.146,33.068 12.948,20.857 32.516,28.121 55.924,26.157 40.152,-3.369 54.049,-34.548 53.065,-67.494 -0.165,-5.535 -2.823,-7.731 -8.927,-7.803 -11.453,-0.135 -22.909,-0.038 -34.365,-0.038 z" style="fill:#000000;fill-opacity:1;fill-rule:nonzero;stroke:none" id="path30"/></g><g id="g32" transform="translate(552.876,485.0469)"><path d="m 0,0 c 3.569,-0.001 7.143,-0.115 10.707,0.024 6.34,0.249 11.015,-2.051 14.727,-7.47 6.712,-9.802 26.855,-13.106 36.931,-6.5 8.223,5.39 7.42,15.737 -1.77,20.204 -9.803,4.763 -20.542,5.803 -31.183,6.889 -9.637,0.985 -18.866,3.088 -27.44,7.76 -20.838,11.352 -23.401,39.156 -5.162,54.571 12.083,10.211 26.631,12.723 41.57,13.357 27.63,1.174 48.926,-9.632 61.858,-34.793 1.336,-2.6 5.634,-4.849 4.191,-7.116 -1.541,-2.423 -5.931,-0.818 -9.061,-0.882 -6.948,-0.143 -13.901,-0.034 -20.852,-0.022 -3.84,0.007 -7.181,1.098 -8.655,4.995 -2.694,7.122 -8.428,10.307 -15.264,11.989 -7.488,1.843 -14.963,1.444 -22.145,-1.36 -4.629,-1.807 -8.039,-4.817 -7.749,-10.499 0.269,-5.241 3.811,-7.46 8.068,-8.97 C 40.19,38.126 52.327,37.544 64.062,34.999 74.601,32.714 84.61,29.68 93.048,22.222 110.668,6.646 103.89,-19.299 90.922,-30.138 77.458,-41.393 61.302,-43.352 44.736,-42.813 c -17.761,0.58 -34.14,5.224 -46.541,19.224 -3.518,3.972 -6.327,8.376 -8.937,12.954 -1.109,1.947 -2.446,3.763 -3.688,5.632 -0.903,1.359 -3.544,1.942 -2.969,3.696 0.723,2.208 3.251,1.208 5.001,1.264 C -8.27,0.09 -4.134,0 0,0" style="fill:#000000;fill-opacity:1;fill-rule:nonzero;stroke:none" id="path34"/></g><g id="g36" transform="translate(926.4326,484.1641)"><path d="m 0,0 c 11.513,1.019 22.717,1.303 33.908,0.518 3.539,-0.248 5.966,-2.691 8.094,-5.547 8.049,-10.805 24.404,-14.746 36.444,-8.767 4.002,1.987 6.961,4.87 7.079,9.957 0.121,5.211 -2.349,8.555 -6.68,10.783 -9.562,4.92 -20.074,5.93 -30.509,7.119 -8.239,0.938 -16.392,2.192 -24.024,5.592 -12.034,5.362 -21.389,13.36 -21.735,27.507 -0.346,14.188 5.11,25.997 17.742,33.687 18.214,11.087 58.869,15.096 81.901,-5.171 6.905,-6.076 12.049,-13.366 16.268,-21.357 1.209,-2.291 5.009,-4.212 3.868,-6.2 -1.543,-2.689 -5.482,-1.097 -8.364,-1.169 -6.942,-0.174 -13.893,0.018 -20.839,-0.068 -4.8,-0.06 -8.286,1.59 -10.177,6.317 -1.674,4.184 -4.855,7.207 -8.976,8.912 -9.032,3.736 -18.284,3.966 -27.486,0.693 -4.667,-1.659 -8.162,-4.444 -8.146,-10.182 0.016,-5.659 3.797,-7.84 8.162,-9.458 7.44,-2.759 15.299,-3.69 23.077,-4.96 9.819,-1.602 19.719,-2.988 28.903,-7.082 13.527,-6.03 22.827,-15.732 22.895,-31.214 0.071,-16.022 -7.768,-27.922 -22.157,-35.163 C 87.86,-40.984 75.487,-42.069 63.036,-41.757 54.032,-41.53 45.095,-40.3 36.602,-36.834 25.291,-32.219 16.225,-24.984 9.821,-14.53 6.822,-9.634 4.587,-4.218 0,0" style="fill:#000000;fill-opacity:1;fill-rule:nonzero;stroke:none" id="path38"/></g><g id="g40" transform="translate(928.5664,572.209)"><path d="m 0,0 c -12.69,-5.979 -13.332,-16.824 -13.084,-28.389 0.343,-15.957 -0.574,-31.959 0.232,-47.881 1.355,-26.732 -15.776,-43.785 -35.788,-50.702 -25.182,-8.705 -55.364,2.109 -68.029,24.733 -4.081,7.29 -5.099,15.246 -5.13,23.393 -0.061,15.963 -0.146,31.928 0.015,47.889 0.12,11.93 1.003,23.987 -11.822,31.534 0.367,0.452 0.734,0.904 1.101,1.357 h 10.376 c 8.639,-10e-4 17.278,0.039 25.917,-0.016 7.636,-0.047 10.164,-2.3 10.431,-10.013 0.285,-8.254 0.131,-16.524 0.139,-24.787 0.017,-16.902 -0.002,-33.805 0.024,-50.707 0.018,-13.017 6.479,-20.366 17.92,-20.45 11.674,-0.087 18.888,7.373 18.995,20.376 0.201,24.6 0.094,49.204 0.126,73.806 0.002,1.877 -0.047,3.769 0.168,5.626 0.364,3.133 2.164,5.665 5.282,5.715 13.985,0.224 27.976,0.097 41.964,0.097 C -0.775,1.054 -0.388,0.527 0,0" style="fill:#000000;fill-opacity:1;fill-rule:nonzero;stroke:none" id="path42"/></g><g id="g44" transform="translate(124.8872,626.9058)"><path d="m 0,0 c -7.598,0.166 -19.214,-0.729 -30.709,-2.602 -13.412,-2.185 -26.435,-5.694 -37.997,-13.318 -5.615,-3.704 -8.198,-8.381 -8.029,-15.494 0.561,-23.68 2.183,-47.273 5.251,-70.732 1.821,-13.921 2.952,-28.339 10.323,-40.706 12.864,-21.586 29.929,-39.394 50.963,-53.311 9.704,-6.42 19.047,-6.235 28.879,0.102 12.454,8.027 22.985,18.103 32.947,28.893 14.077,15.242 23.655,32.396 26.582,53.522 3.846,27.761 5.785,55.61 7.12,83.547 0.212,4.447 -1.234,8.016 -4.546,11.01 -5.696,5.146 -12.424,8.39 -19.551,10.903 C 42.729,-1.659 23.5,-0.145 0,0 m 96.594,-34.285 c -1.161,-32.753 -3.526,-61.117 -9.085,-89.185 -2.659,-13.427 -8.667,-25.08 -16.856,-35.821 -12.251,-16.068 -25.955,-30.549 -43.079,-41.647 -16.029,-10.387 -31.643,-10.134 -47.381,0.349 -21.98,14.638 -39.252,33.725 -52.293,56.517 -7.711,13.478 -9.086,28.924 -11.061,43.962 -3.299,25.123 -5.311,50.359 -5.143,75.747 0.034,5.158 1.687,8.913 5.358,12.338 13.278,12.384 29.603,18.228 46.884,21.769 35.125,7.196 69.757,5.925 103.561,-6.994 0.876,-0.334 1.74,-0.705 2.595,-1.09 17.304,-7.792 32.149,-17.188 26.5,-35.945" style="fill:#000000;fill-opacity:1;fill-rule:nonzero;stroke:none" id="path46"/></g><g id="g48" transform="translate(130.1211,573.8184)"><path d="m 0,0 c -5.252,0 -9.385,-0.077 -13.514,0.025 -3.173,0.079 -4.972,-0.949 -4.883,-4.486 0.132,-5.255 0.032,-10.515 0.045,-15.772 0.005,-2.026 0.416,-4.024 2.911,-3.981 10.477,0.179 21.057,-1.47 31.402,1.106 5.772,1.436 9.189,6.321 8.868,11.536 -0.353,5.741 -3.66,9.474 -9.669,10.857 C 9.781,0.522 4.308,-0.205 0,0 m -0.063,-74.073 v 0.054 c 4.69,0 9.393,-0.22 14.068,0.049 8.161,0.47 13.38,6.237 13.376,14.383 -0.004,8.805 -4.4,13.986 -13.089,14.364 -9.365,0.407 -18.759,0.094 -28.138,0.207 -3.442,0.041 -4.609,-1.584 -4.555,-4.835 0.107,-6.377 0.181,-12.762 -0.038,-19.134 -0.141,-4.068 1.73,-5.262 5.431,-5.125 4.309,0.159 8.629,0.037 12.945,0.037 m -43.449,39 c -10e-4,19.517 -0.022,39.034 0.01,58.552 0.012,7.821 0.279,7.93 7.4,5.454 13.408,-4.662 27.31,-6.63 41.427,-7.157 5.436,-0.202 10.859,-0.262 16.275,-0.948 12.111,-1.534 20.812,-7.79 24.847,-19.223 4.049,-11.47 1.97,-22.254 -6.575,-31.31 -1.871,-1.982 -3.307,-3.013 -0.271,-5.579 12.75,-10.781 17.046,-23.829 12.618,-36.789 -4.96,-14.516 -16.66,-23.281 -33.555,-23.56 -19.355,-0.319 -38.633,-0.716 -57.595,-5.118 -5.073,-1.178 -4.543,2.528 -4.551,5.437 -0.057,20.08 -0.03,40.161 -0.03,60.241" style="fill:#000000;fill-opacity:1;fill-rule:nonzero;stroke:none" id="path50"/></g></g></g></g></svg>