<?xml version="1.0" encoding="UTF-8" standalone="no"?>
<svg xmlns:dc="http://purl.org/dc/elements/1.1/" xmlns:cc="http://creativecommons.org/ns#" xmlns:rdf="http://www.w3.org/1999/02/22-rdf-syntax-ns#" xmlns:svg="http://www.w3.org/2000/svg" xmlns="http://www.w3.org/2000/svg" viewBox="0 0 1440 1440" height="1440" width="1440" xml:space="preserve" id="svg2" version="1.1"><metadata id="metadata8"><rdf:RDF><cc:Work rdf:about=""><dc:format>image/svg+xml</dc:format><dc:type rdf:resource="http://purl.org/dc/dcmitype/StillImage"/></cc:Work></rdf:RDF></metadata><defs id="defs6"><clipPath id="clipPath18" clipPathUnits="userSpaceOnUse"><path id="path16" d="M 0,1080 H 1080 V 0 H 0 Z"/></clipPath></defs><g transform="matrix(1.3333333,0,0,-1.3333333,0,1440)" id="g10"><g id="g12"><g clip-path="url(#clipPath18)" id="g14"><g transform="translate(165.8374,722.7471)" id="g20"><path id="path22" style="fill:#71d34c;fill-opacity:1;fill-rule:evenodd;stroke:none" d="M 0,0 H 14.497 C 41.266,-5.927 47.143,-47.014 19.328,-57.979 -7.295,-68.472 -31.829,-41.613 -20.289,-16.427 -16.534,-8.231 -10.351,-5.071 0,0"/></g><g transform="translate(38.2881,616.4531)" id="g24"><path id="path26" style="fill:#71d34c;fill-opacity:1;fill-rule:evenodd;stroke:none" d="M 0,0 V 11.595 C 7.1,33.918 40.479,26.538 40.583,5.797 40.698,-16.366 6.995,-23.185 0,0"/></g><g transform="translate(284.6958,641.5781)" id="g28"><path id="path30" style="fill:#71d34c;fill-opacity:1;fill-rule:evenodd;stroke:none" d="m 0,0 c 10.604,1.889 23.168,-4.826 24.159,-17.395 0.705,-8.969 -5.348,-20.085 -14.493,-22.224 -19.298,-4.512 -31.26,15.38 -24.16,29.953 C -12.319,-5.2 -6.794,-1.214 0,0"/></g><g transform="translate(144.5796,632.8789)" id="g32"><path id="path34" style="fill:#71d34c;fill-opacity:1;fill-rule:evenodd;stroke:none" d="M 0,0 C 1.682,0.215 8.562,0.474 11.598,-0.966 32.547,-10.893 18.794,-49.918 -6.764,-38.65 -20.734,-32.492 -23.887,-3.036 0,0"/></g><g transform="translate(197.7271,632.8789)" id="g36"><path id="path38" style="fill:#71d34c;fill-opacity:1;fill-rule:evenodd;stroke:none" d="M 0,0 C 15.477,1.842 26.496,-13.563 21.26,-28.021 14.744,-46.014 -17.104,-43.046 -18.359,-21.258 -19.122,-7.994 -11.802,-1.401 0,0"/></g><g transform="translate(144.5796,579.7349)" id="g40"><path id="path42" style="fill:#71d34c;fill-opacity:1;fill-rule:evenodd;stroke:none" d="M 0,0 C 1.682,0.209 8.562,0.471 11.598,-0.969 32.547,-10.896 18.794,-49.92 -6.764,-38.656 -20.734,-32.495 -23.887,-3.037 0,0"/></g><g transform="translate(197.7271,579.7349)" id="g44"><path id="path46" style="fill:#71d34c;fill-opacity:1;fill-rule:evenodd;stroke:none" d="M 0,0 C 7.653,0.925 17.092,-4.311 19.325,-7.73 36.112,-33.437 -7.287,-53.858 -17.393,-27.056 -22.491,-13.533 -12.383,-1.503 0,0"/></g><g transform="translate(126.2207,433.8213)" id="g48"><path id="path50" style="fill:#71d34c;fill-opacity:1;fill-rule:evenodd;stroke:none" d="M 0,0 H -11.595 C -35.234,7.867 -28.019,41.629 -4.832,40.583 15.601,39.664 21.932,6.078 0,0"/></g><g transform="translate(232.5151,433.8213)" id="g52"><path id="path54" style="fill:#71d34c;fill-opacity:1;fill-rule:evenodd;stroke:none" d="M 0,0 H -11.596 C -35.056,7.097 -28.179,41.635 -4.831,40.583 14.13,39.729 23.176,7.422 0,0"/></g><g transform="translate(202.5581,692.4712)" id="g56"><path id="path58" style="fill:#71d34c;fill-opacity:1;fill-rule:evenodd;stroke:none" d="m 0,0 c 0,-16.545 -13.409,-29.957 -29.954,-29.957 -16.545,0 -29.957,13.412 -29.957,29.957 0,16.544 13.412,29.954 29.957,29.954 C -13.409,29.954 0,16.544 0,0"/></g><g transform="translate(167.7729,612.5874)" id="g60"><path id="path62" style="fill:#71d34c;fill-opacity:1;fill-rule:evenodd;stroke:none" d="m 0,0 c 0,-11.204 -9.084,-20.291 -20.294,-20.291 -11.207,0 -20.292,9.087 -20.292,20.291 0,11.207 9.085,20.294 20.292,20.294 C -9.084,20.294 0,11.207 0,0"/></g><g transform="translate(219.3096,612.5874)" id="g64"><path id="path66" style="fill:#71d34c;fill-opacity:1;fill-rule:evenodd;stroke:none" d="m 0,0 c 0,-11.204 -9.087,-20.291 -20.292,-20.291 -11.209,0 -20.294,9.087 -20.294,20.291 0,11.207 9.085,20.294 20.294,20.294 C -9.087,20.294 0,11.207 0,0"/></g><g transform="translate(167.7729,559.1157)" id="g68"><path id="path70" style="fill:#71d34c;fill-opacity:1;fill-rule:evenodd;stroke:none" d="m 0,0 c 0,-11.205 -9.084,-20.289 -20.294,-20.289 -11.207,0 -20.292,9.084 -20.292,20.289 0,11.209 9.085,20.297 20.292,20.297 C -9.084,20.297 0,11.209 0,0"/></g><g transform="translate(77.5825,621.606)" id="g72"><path id="path74" style="fill:#71d34c;fill-opacity:1;fill-rule:evenodd;stroke:none" d="m 0,0 c 0,-11.207 -9.084,-20.292 -20.291,-20.292 -11.207,0 -20.292,9.085 -20.292,20.292 0,11.21 9.085,20.292 20.292,20.292 C -9.084,20.292 0,11.21 0,0"/></g><g transform="translate(309.4995,621.606)" id="g76"><path id="path78" style="fill:#71d34c;fill-opacity:1;fill-rule:evenodd;stroke:none" d="m 0,0 c 0,-11.207 -9.087,-20.292 -20.294,-20.292 -11.207,0 -20.292,9.085 -20.292,20.292 0,11.21 9.085,20.292 20.292,20.292 C -9.087,20.292 0,11.21 0,0"/></g><g transform="translate(219.3096,559.1157)" id="g80"><path id="path82" style="fill:#71d34c;fill-opacity:1;fill-rule:evenodd;stroke:none" d="m 0,0 c 0,-11.205 -9.087,-20.289 -20.292,-20.289 -11.209,0 -20.294,9.084 -20.294,20.289 0,11.209 9.085,20.297 20.294,20.297 C -9.087,20.297 0,11.209 0,0"/></g><g transform="translate(140.0703,453.4658)" id="g84"><path id="path86" style="fill:#71d34c;fill-opacity:1;fill-rule:evenodd;stroke:none" d="m 0,0 c 0,-11.204 -9.084,-20.289 -20.292,-20.289 -11.207,0 -20.291,9.085 -20.291,20.289 0,11.21 9.084,20.294 20.291,20.294 C -9.084,20.294 0,11.21 0,0"/></g><g transform="translate(247.6528,453.4658)" id="g88"><path id="path90" style="fill:#71d34c;fill-opacity:1;fill-rule:evenodd;stroke:none" d="m 0,0 c 0,-11.204 -9.084,-20.289 -20.292,-20.289 -11.207,0 -20.291,9.085 -20.291,20.289 0,11.21 9.084,20.294 20.291,20.294 C -9.084,20.294 0,11.21 0,0"/></g><g transform="translate(1048.9883,530.376)" id="g92"><path id="path94" style="fill:#71d34c;fill-opacity:1;fill-rule:nonzero;stroke:none" d="m 0,0 0.012,-70.039 h -33.833 l -0.017,70.056 c 0,18.961 -7.405,30.292 -25.893,30.292 -18.472,0 -25.888,-11.331 -25.888,-30.292 v -70.056 h -33.833 V 0 c 0,39.239 19.947,61.563 59.721,61.563 C -19.941,61.563 0,39.509 0,0 m -527.347,-5.974 c 0,-39.756 -27.752,-67.522 -67.473,-67.522 -39.779,0 -67.566,28.013 -67.566,68.122 v 111.189 h 33.824 V 44.156 c 8.272,8.966 21.621,17.407 40.195,17.407 36.501,0 61.02,-27.141 61.02,-67.537 m -33.83,0 c 0,20.68 -14.483,36.283 -33.684,36.283 -19.199,0 -33.701,-15.603 -33.701,-36.283 0,-20.685 14.502,-36.283 33.701,-36.283 19.201,0 33.684,15.598 33.684,36.283 m 177.724,-2.439 c 0,-2.935 -0.127,-7.136 -0.386,-10.148 h -96.224 c 1.702,-16.092 16.264,-26.576 34.427,-26.576 13.412,0 24.457,3.953 33.723,12.086 l 17.223,-23.499 c -9.912,-7.895 -26.593,-16.946 -50.935,-16.946 -41.001,0 -68.535,26.73 -68.535,66.515 0,39.079 28.674,68.544 66.719,68.544 40.076,0 63.988,-26.161 63.988,-69.976 m -34.252,13.995 c -2.378,15.626 -12.465,28.124 -31.003,28.124 -18.169,0 -28.85,-12.427 -31.212,-28.124 z m 51.952,-75.621 h 33.844 v 175.852 h -33.844 z m 175.205,127.271 h -38.893 L -274.924,0.958 v 104.857 h -33.845 V -70.039 h 33.845 v 60.932 l 45.511,-60.932 h 41.122 l -52.486,68.602 z m 15.102,-127.271 h 33.844 V 57.227 h -33.844 z m 16.93,182.243 c -10.763,0 -19.523,-8.748 -19.523,-19.52 0,-10.753 8.76,-19.507 19.523,-19.507 10.752,0 19.507,8.754 19.507,19.507 0,10.772 -8.755,19.52 -19.507,19.52"/></g></g></g></g></svg>