<?xml version="1.0" encoding="UTF-8" standalone="no"?>
<svg xmlns:dc="http://purl.org/dc/elements/1.1/" xmlns:cc="http://creativecommons.org/ns#" xmlns:rdf="http://www.w3.org/1999/02/22-rdf-syntax-ns#" xmlns:svg="http://www.w3.org/2000/svg" xmlns="http://www.w3.org/2000/svg" xmlns:sodipodi="http://sodipodi.sourceforge.net/DTD/sodipodi-0.dtd" xmlns:inkscape="http://www.inkscape.org/namespaces/inkscape" version="1.1" id="svg2" xml:space="preserve" width="1440" height="1440" viewBox="0 0 1440 1440" sodipodi:docname="Bose.ai"><metadata id="metadata8"><rdf:RDF><cc:Work rdf:about=""><dc:format>image/svg+xml</dc:format><dc:type rdf:resource="http://purl.org/dc/dcmitype/StillImage"/></cc:Work></rdf:RDF></metadata><defs id="defs6"><clipPath clipPathUnits="userSpaceOnUse" id="clipPath18"><path d="M 0,1080 H 1080 V 0 H 0 Z" id="path16"/></clipPath></defs><sodipodi:namedview pagecolor="#ffffff" bordercolor="#666666" borderopacity="1" objecttolerance="10" gridtolerance="10" guidetolerance="10" inkscape:pageopacity="0" inkscape:pageshadow="2" inkscape:window-width="640" inkscape:window-height="480" id="namedview4"/><g id="g10" inkscape:groupmode="layer" inkscape:label="Bose" transform="matrix(1.3333333,0,0,-1.3333333,0,1440)"><g id="g12"><g id="g14" clip-path="url(#clipPath18)"><g id="g20" transform="translate(761.1572,606.9951)"><path d="m 0,0 h -122.347 c -13.655,0 -29.631,-9.149 -35.502,-20.209 -1.365,-3.003 -17.206,-31.134 -19.117,-34.41 -3.551,-6.282 -0.682,-21.165 9.284,-20.756 h 72.098 c 0,0 -13.655,-24.715 -13.928,-25.261 -5.734,-10.65 -23.759,-11.334 -19.662,-0.136 1.091,1.638 4.096,7.509 4.096,7.509 l -75.511,-0.136 c 0,0 -9.695,-17.615 -10.104,-18.571 -4.233,-7.919 5.324,-13.653 15.565,-13.109 h 127.264 c 10.514,-0.136 20.89,5.873 25.397,13.519 0.409,0.683 23.351,41.647 24.033,43.012 3.14,7.102 -2.458,15.02 -11.06,15.02 h -73.735 c 0,0 13.653,24.306 14.2,25.399 4.37,6.007 21.984,9.558 20.209,0.819 -0.546,-0.956 -5.052,-8.739 -5.052,-8.739 h 73.735 c 0,0 8.74,15.43 10.65,19.117 C 13.518,-10.924 8.739,0.546 0,0" style="fill:#231f20;fill-opacity:1;fill-rule:evenodd;stroke:none" id="path22"/></g><g id="g24" transform="translate(804.3066,606.9951)"><path d="M 0,0 -69.912,-125.079 H 99.133 l 10.241,19.526 H 13.928 l 18.434,32.364 h 95.582 l 10.379,19.524 H 42.604 l 17.34,34.412 H 244.693 V 0 Z" style="fill:#231f20;fill-opacity:1;fill-rule:evenodd;stroke:none" id="path26"/></g><g id="g28" transform="translate(475.7734,577.6367)"><path d="m 0,0 c -1.639,-2.731 -38.37,-69.092 -39.873,-71.823 -1.502,-4.235 8.33,-7.51 12.152,-7.51 3.141,0 14.066,1.502 18.025,7.51 2.458,4.094 37.688,67.999 39.326,70.731 C 32.088,3.824 23.212,6.009 19.389,6.009 16.112,6.009 2.457,6.417 0,0 M 94.08,29.358 H -31.543 c -12.973,0.546 -23.487,-4.507 -29.495,-14.748 -1.912,-3.276 -50.523,-90.257 -51.614,-92.304 -3.96,-6.556 -1.094,-18.571 11.469,-18.027 6.965,0 120.846,-0.135 125.215,0 12.016,-0.272 22.394,5.6 26.763,12.154 1.912,2.868 52.297,94.081 54.072,97.223 3.551,7.099 -2.321,16.112 -10.787,15.702" style="fill:#231f20;fill-opacity:1;fill-rule:evenodd;stroke:none" id="path30"/></g><g id="g32" transform="translate(291.1597,583.5078)"><path d="m 0,0 -16.522,-30.449 h 36.185 c 3.959,0.545 9.012,2.73 9.832,4.505 0.819,1.093 9.558,16.932 10.378,18.571 C 41.784,-3.686 39.736,0 35.366,0 Z M -27.446,-50.112 -46.29,-83.431 h 35.912 c 4.642,0.137 7.647,2.458 13.109,8.193 1.913,3.279 8.739,15.704 10.105,18.434 1.911,3.825 1.501,6.144 -4.233,6.692 z M -253.16,-83.565 v -18.027 c 0,0 264.904,0.137 270.911,0.137 12.29,0.273 21.575,8.058 24.58,13.246 6.553,7.1 18.842,29.631 21.3,37.823 3.005,8.057 -2.866,14.611 -5.871,17.069 6.144,0.956 18.434,6.144 22.121,12.29 4.369,4.505 15.02,23.622 17.068,30.314 2.731,6.28 2.731,14.2 -7.646,14.2 H -60.082 l -59.26,-107.052 z" style="fill:#231f20;fill-opacity:1;fill-rule:evenodd;stroke:none" id="path34"/></g></g></g></g></svg>