<?xml version="1.0" encoding="UTF-8" standalone="no"?>
<svg xmlns:dc="http://purl.org/dc/elements/1.1/" xmlns:cc="http://creativecommons.org/ns#" xmlns:rdf="http://www.w3.org/1999/02/22-rdf-syntax-ns#" xmlns:svg="http://www.w3.org/2000/svg" xmlns="http://www.w3.org/2000/svg" xmlns:sodipodi="http://sodipodi.sourceforge.net/DTD/sodipodi-0.dtd" xmlns:inkscape="http://www.inkscape.org/namespaces/inkscape" version="1.1" id="svg2" xml:space="preserve" width="1440" height="1440" viewBox="0 0 1440 1440" sodipodi:docname="Microsoft.ai"><metadata id="metadata8"><rdf:RDF><cc:Work rdf:about=""><dc:format>image/svg+xml</dc:format><dc:type rdf:resource="http://purl.org/dc/dcmitype/StillImage"/></cc:Work></rdf:RDF></metadata><defs id="defs6"><clipPath clipPathUnits="userSpaceOnUse" id="clipPath18"><path d="M 0,1080 H 1080 V 0 H 0 Z" id="path16"/></clipPath></defs><sodipodi:namedview pagecolor="#ffffff" bordercolor="#666666" borderopacity="1" objecttolerance="10" gridtolerance="10" guidetolerance="10" inkscape:pageopacity="0" inkscape:pageshadow="2" inkscape:window-width="640" inkscape:window-height="480" id="namedview4"/><g id="g10" inkscape:groupmode="layer" inkscape:label="Microsoft" transform="matrix(1.3333333,0,0,-1.3333333,0,1440)"><g id="g12"><g id="g14" clip-path="url(#clipPath18)"><g id="g20" transform="translate(88.6094,547.4399)"><path d="m 0,0 c -15.689,0 -31.378,0.081 -47.066,-0.062 -3.416,-0.032 -4.603,1.04 -4.592,4.501 0.095,31.497 0.048,62.995 0.066,94.492 0.002,4.293 0.368,4.639 4.793,4.642 31.378,0.014 62.756,0.014 94.133,0 4.456,-0.002 4.638,-0.2 4.639,-4.683 0.009,-31.378 0.009,-62.756 0,-94.133 C 51.971,0.094 51.875,0.007 47.066,0.004 31.378,-0.007 15.689,0 0,0" style="fill:#f25022;fill-opacity:1;fill-rule:nonzero;stroke:none" id="path22"/></g><g id="g24" transform="translate(253.4385,599.1099)"><path d="m 0,0 c 0,-15.677 -0.1,-31.355 0.074,-47.03 0.04,-3.665 -1.174,-4.695 -4.744,-4.682 -31.234,0.113 -62.468,0.115 -93.701,-0.002 -3.624,-0.014 -4.728,1.124 -4.714,4.729 0.115,31.473 0.111,62.946 0.003,94.419 -0.011,3.491 1.191,4.526 4.572,4.517 31.353,-0.091 62.707,-0.093 94.06,10e-4 3.431,0.01 4.548,-1.121 4.515,-4.564 C -0.083,31.593 0,15.796 0,0" style="fill:#7fba00;fill-opacity:1;fill-rule:nonzero;stroke:none" id="path26"/></g><g id="g28" transform="translate(88.8398,434.6396)"><path d="m 0,0 c -15.686,0 -31.372,0.091 -47.055,-0.069 -3.558,-0.037 -4.82,0.983 -4.807,4.659 0.115,31.131 0.058,62.262 0.074,93.392 0.002,4.617 0.325,4.931 4.87,4.933 31.37,0.011 62.74,-0.036 94.11,0.064 3.435,0.011 4.555,-1.103 4.544,-4.541 C 51.635,67.188 51.63,35.938 51.742,4.687 51.755,1.12 50.725,-0.113 47.055,-0.072 31.371,0.099 15.685,0 0,0" style="fill:#00a4ef;fill-opacity:1;fill-rule:nonzero;stroke:none" id="path30"/></g><g id="g32" transform="translate(253.4033,485.7568)"><path d="m 0,0 c 0,-15.563 -0.084,-31.127 0.064,-46.689 0.033,-3.465 -1.122,-4.516 -4.542,-4.504 -31.366,0.102 -62.732,0.094 -94.098,0.009 -3.184,-0.008 -4.442,0.886 -4.431,4.26 0.097,31.486 0.094,62.972 0.002,94.458 -0.01,3.3 1.117,4.345 4.373,4.336 31.365,-0.088 62.732,-0.108 94.098,0.02 3.761,0.015 4.632,-1.362 4.599,-4.841 C -0.083,31.367 0,15.684 0,0" style="fill:#ffb900;fill-opacity:1;fill-rule:nonzero;stroke:none" id="path34"/></g><g id="g36" transform="translate(434.4463,576.3687)"><path d="m 0,0 c -3.568,-8.955 -7.149,-17.905 -10.701,-26.867 -8.952,-22.591 -17.951,-45.163 -26.766,-67.807 -1.206,-3.101 -2.836,-4.106 -6.09,-4.066 -11.206,0.135 -11.189,0.025 -15.422,10.486 -11.497,28.406 -23.01,56.805 -34.523,85.203 -0.431,1.062 -0.939,2.091 -1.983,3.023 v -3.788 c 0,-29.933 0.003,-59.865 -0.003,-89.798 -0.002,-5.025 -0.02,-5.036 -4.924,-5.05 -4.43,-0.011 -8.862,0.081 -13.289,-0.027 -2.458,-0.059 -3.507,0.943 -3.46,3.372 0.06,3.112 0,6.226 -0.001,9.339 -10e-4,37.236 -0.002,74.473 0.002,111.709 10e-4,5.741 0.054,5.787 5.814,5.793 7.662,0.008 15.328,-0.12 22.987,0.06 3.139,0.073 4.695,-1.112 5.811,-4.016 11.249,-29.274 22.614,-58.504 33.968,-87.738 0.414,-1.068 0.466,-2.377 2.104,-3.3 2.169,5.195 4.343,10.308 6.445,15.451 10.233,25.042 20.501,50.071 30.603,75.166 1.328,3.298 3.137,4.557 6.677,4.449 7.536,-0.232 15.084,-0.151 22.626,-0.037 2.916,0.044 3.982,-1.01 3.977,-3.985 -0.068,-40.709 -0.072,-81.417 0.005,-122.126 0.006,-3.106 -0.954,-4.289 -4.122,-4.163 -5.02,0.2 -10.065,0.249 -15.08,-0.012 -3.665,-0.19 -4.08,1.693 -4.072,4.618 0.056,23.587 0.03,47.174 0.03,70.761 -0.001,7.742 0,15.483 0,23.224 C 0.408,-0.084 0.204,-0.042 0,0" style="fill:#737373;fill-opacity:1;fill-rule:nonzero;stroke:none" id="path38"/></g><g id="g40" transform="translate(972.6855,514.8975)"><path d="m 0,0 c -0.003,-11.017 -0.076,-22.034 0.045,-33.05 0.034,-3.072 -0.954,-4.324 -4.139,-4.195 -4.901,0.197 -9.825,0.224 -14.723,-0.008 -3.38,-0.16 -4.325,1.199 -4.311,4.392 0.09,21.673 0.048,43.348 0.044,65.023 -0.001,5.37 -0.01,5.37 -5.288,5.38 -9.914,0.02 -9.984,0.021 -9.895,9.767 0.092,10.079 -1.592,8.94 8.89,9.035 0.838,0.008 1.682,0.067 2.514,-0.005 2.76,-0.235 3.88,0.944 3.818,3.755 -0.093,4.184 -0.23,8.411 0.233,12.555 2.295,20.531 19.113,31.46 38.785,29.536 8.398,-0.822 8.381,-1.006 8.379,-9.586 -0.001,-2.755 -0.021,-5.509 -0.02,-8.263 10e-4,-2.221 -0.864,-3.077 -3.13,-2.228 -1.335,0.5 -2.761,0.79 -4.168,1.059 C 7.878,84.913 1.026,79.945 0.178,70.709 -0.172,66.908 0.068,63.053 0.021,59.222 c -0.024,-1.935 0.902,-2.856 2.834,-2.854 8.623,0.011 17.245,0.014 25.866,0 2.242,-0.004 2.825,1.295 2.811,3.256 -0.03,4.549 0.068,9.102 -0.018,13.65 -0.044,2.342 0.687,3.809 3.108,4.495 5.526,1.567 11.025,3.245 16.488,5.023 2.739,0.891 3.442,-0.264 3.429,-2.718 -0.033,-6.586 0.087,-13.174 -0.04,-19.758 -0.057,-2.938 1.038,-4.094 3.993,-4.006 4.785,0.142 9.579,-0.013 14.368,0.037 2.366,0.025 3.523,-0.86 3.452,-3.384 C 76.196,48.895 76.22,44.82 76.297,40.75 76.34,38.471 75.405,37.5 73.106,37.535 c -4.788,0.07 -9.584,-0.125 -14.367,0.056 -3.034,0.115 -4.289,-0.801 -4.257,-4.04 0.136,-13.65 0.198,-27.304 0.03,-40.952 -0.16,-13.021 9.348,-14.985 17.878,-11.989 3.897,1.369 3.88,1.463 3.894,-2.589 0.014,-3.952 -0.04,-7.904 10e-4,-11.855 0.018,-1.771 -0.611,-3.019 -2.364,-3.552 -9.525,-2.9 -19.006,-3.542 -28.436,0.433 -6.189,2.609 -9.861,7.421 -11.914,13.597 -1.404,4.228 -2.033,8.613 -2.035,13.075 -0.006,14.369 -0.096,28.74 0.065,43.108 0.039,3.49 -0.804,4.929 -4.588,4.795 -7.655,-0.27 -15.328,-0.209 -22.988,-0.02 -3.22,0.079 -4.113,-1.13 -4.076,-4.193 C 0.084,22.274 0.003,11.137 0,0" style="fill:#737373;fill-opacity:1;fill-rule:nonzero;stroke:none" id="path42"/></g><g id="g44" transform="translate(884.7451,494.3525)"><path d="m 0,0 c 12.921,-0.069 20.349,5.735 23.216,18.388 1.659,7.32 1.751,14.716 0.086,22.066 C 20.53,52.685 12.854,59.39 1.539,59.569 -11.7,59.778 -19.947,53.721 -23.205,41.197 -25.07,34.028 -25.124,26.759 -23.649,19.507 -21.037,6.666 -12.999,0.069 0,0 M 47.838,32.067 C 47.916,17.278 44.727,5.15 35.556,-4.881 30.863,-10.014 25.185,-13.76 18.614,-15.994 c -11.646,-3.962 -23.488,-4.343 -35.327,-1.028 -13.869,3.881 -23.636,12.567 -28.274,26.254 -4.905,14.47 -4.621,29.133 1.443,43.181 7.025,16.273 20.349,24.134 37.59,26.057 6.964,0.777 13.877,0.534 20.676,-1.068 17.529,-4.131 29.395,-17.261 32.28,-35.424 0.603,-3.797 0.93,-7.602 0.836,-9.911" style="fill:#737373;fill-opacity:1;fill-rule:nonzero;stroke:none" id="path46"/></g><g id="g48" transform="translate(708.1318,494.3525)"><path d="m 0,0 c 11.372,-0.01 18.878,4.897 21.958,14.857 2.966,9.59 3.044,19.358 0.168,28.986 C 19.278,53.375 12.128,58.891 2.446,59.532 -8.699,60.27 -17.019,55.97 -21.332,46.99 -25.257,38.819 -25.479,30.179 -24.29,21.358 -22.464,7.803 -13.682,0.011 0,0 m -48.197,28.703 c -0.148,14.576 3.558,27.683 14.506,38.052 4.796,4.544 10.366,7.706 16.668,9.545 9.689,2.826 19.534,3.383 29.457,1.461 16.222,-3.143 27.246,-12.479 32.328,-28.235 4.36,-13.522 4.176,-27.198 -0.893,-40.51 -4.843,-12.722 -14,-21.358 -26.975,-25.502 -11.693,-3.734 -23.613,-3.798 -35.347,-0.144 -17.54,5.463 -29.102,21.184 -29.735,39.945 -0.061,1.794 -0.009,3.592 -0.009,5.388" style="fill:#737373;fill-opacity:1;fill-rule:nonzero;stroke:none" id="path50"/></g><g id="g52" transform="translate(765.5215,491.1982)"><path d="m 0,0 c -0.001,2.394 -0.023,4.788 0.004,7.182 0.045,3.808 0.22,3.92 3.45,2.04 8.257,-4.804 16.981,-7.705 26.695,-6.661 2.912,0.312 5.735,0.942 7.74,3.262 2.486,2.876 2.176,7.734 -0.604,10.899 -2.68,3.049 -6.221,4.813 -9.865,6.384 -5.822,2.51 -11.622,4.987 -16.964,8.53 -14.041,9.309 -13.79,31.809 -1.224,41.81 10.823,8.613 23.238,10.053 36.365,7.848 12.025,-2.02 12.01,-2.11 12.009,-14.301 0,-2.275 -0.037,-4.55 -0.002,-6.824 0.038,-2.597 -0.905,-3.228 -3.24,-1.888 -7.033,4.034 -14.539,6.076 -22.712,5.157 -7.027,-0.792 -10.591,-6.222 -8.151,-12.425 0.737,-1.874 2.096,-3.154 3.729,-4.233 3.628,-2.394 7.712,-3.814 11.656,-5.538 6.265,-2.737 12.6,-5.46 17.268,-10.685 11.168,-12.498 7.43,-32.651 -7.552,-40.965 -10.287,-5.708 -21.359,-6.5 -32.743,-4.842 -4.262,0.621 -8.441,1.646 -12.553,2.996 -2.44,0.802 -3.501,2.137 -3.339,4.714 C 0.125,-5.036 0.002,-2.515 0,0" style="fill:#737373;fill-opacity:1;fill-rule:nonzero;stroke:none" id="path54"/></g><g id="g56" transform="translate(588.9873,557.5498)"><path d="m 0,0 c 0.003,-2.515 -0.051,-5.031 0.017,-7.543 0.083,-3.051 -1.088,-3.242 -3.397,-1.741 -5.847,3.804 -12.135,5.931 -19.274,5.778 -14.509,-0.31 -25.769,-10.643 -26.882,-25.17 -0.329,-4.295 -0.511,-8.637 0.283,-12.898 3.253,-17.466 17.823,-23.855 33.091,-21.027 4.759,0.882 9.086,3.021 13.099,5.698 2.318,1.547 3.129,1.013 3.089,-1.69 -0.073,-4.908 -0.042,-9.818 -0.018,-14.727 0.009,-1.677 -0.391,-3.037 -2.056,-3.83 -19.642,-9.349 -52.251,-8.086 -65.897,18.131 -11.055,21.238 -5.483,50.907 13.123,64.94 16.04,12.098 34.044,12.677 52.507,5.603 C -0.633,10.88 0.043,9.669 0.009,7.903 -0.042,5.27 -0.004,2.634 0,0" style="fill:#737373;fill-opacity:1;fill-rule:nonzero;stroke:none" id="path58"/></g><g id="g60" transform="translate(627.3867,557.8232)"><path d="m 0,0 c 3.118,5.735 6.888,10.085 12.521,12.518 5.336,2.304 10.837,2.787 16.513,1.651 1.701,-0.34 2.893,-1.12 2.896,-3.053 0.007,-5.987 0.045,-11.973 0.015,-17.959 -0.014,-2.952 -1.692,-1.766 -3.12,-1.179 -7.192,2.959 -14.226,3.339 -20.712,-1.701 -4.503,-3.5 -6.531,-8.503 -7.452,-13.927 -0.558,-3.288 -0.851,-6.659 -0.874,-9.995 -0.094,-14.007 -0.132,-28.016 0.025,-42.023 0.038,-3.445 -1.056,-4.692 -4.516,-4.511 -4.537,0.239 -9.107,0.24 -13.644,0 -3.49,-0.184 -4.516,1.141 -4.503,4.546 0.108,26.221 0.059,52.442 0.058,78.662 0,10.39 0,10.39 10.439,10.39 2.395,0 4.791,0.012 7.185,-0.003 4.798,-0.031 4.889,-0.122 4.915,-4.761 C -0.239,6.141 -0.236,3.627 -0.225,1.113 -0.224,0.996 -0.18,0.88 0,0" style="fill:#737373;fill-opacity:1;fill-rule:nonzero;stroke:none" id="path62"/></g><g id="g64" transform="translate(478.7847,524.6436)"><path d="m 0,0 c 0,14.009 0.085,28.018 -0.062,42.025 -0.036,3.37 0.931,4.794 4.454,4.626 4.658,-0.222 9.337,-0.131 14.005,-0.032 2.828,0.06 4.116,-0.947 4.109,-3.96 -0.063,-28.616 -0.058,-57.231 -0.005,-85.847 0.006,-2.756 -0.977,-3.874 -3.791,-3.79 -4.904,0.147 -9.823,0.198 -14.723,-0.015 -3.268,-0.143 -4.058,1.247 -4.035,4.249 C 0.061,-28.496 0.001,-14.248 0,0" style="fill:#737373;fill-opacity:1;fill-rule:nonzero;stroke:none" id="path66"/></g><g id="g68" transform="translate(503.5234,597.3853)"><path d="m 0,0 c -0.02,-7.386 -5.776,-12.976 -13.418,-13.03 -7.58,-0.053 -13.836,5.934 -13.783,13.191 0.052,7.139 6.076,12.893 13.6,12.991 C -5.807,13.253 0.02,7.619 0,0" style="fill:#737373;fill-opacity:1;fill-rule:nonzero;stroke:none" id="path70"/></g></g></g></g></svg>