<?xml version="1.0" encoding="UTF-8" standalone="no"?>
<svg xmlns:dc="http://purl.org/dc/elements/1.1/" xmlns:cc="http://creativecommons.org/ns#" xmlns:rdf="http://www.w3.org/1999/02/22-rdf-syntax-ns#" xmlns:svg="http://www.w3.org/2000/svg" xmlns="http://www.w3.org/2000/svg" xmlns:sodipodi="http://sodipodi.sourceforge.net/DTD/sodipodi-0.dtd" xmlns:inkscape="http://www.inkscape.org/namespaces/inkscape" version="1.1" id="svg2" xml:space="preserve" width="1440" height="1440" viewBox="0 0 1440 1440" sodipodi:docname="Spigen.ai"><metadata id="metadata8"><rdf:RDF><cc:Work rdf:about=""><dc:format>image/svg+xml</dc:format><dc:type rdf:resource="http://purl.org/dc/dcmitype/StillImage"/></cc:Work></rdf:RDF></metadata><defs id="defs6"><clipPath clipPathUnits="userSpaceOnUse" id="clipPath18"><path d="M 0,1080 H 1080 V 0 H 0 Z" id="path16"/></clipPath></defs><sodipodi:namedview pagecolor="#ffffff" bordercolor="#666666" borderopacity="1" objecttolerance="10" gridtolerance="10" guidetolerance="10" inkscape:pageopacity="0" inkscape:pageshadow="2" inkscape:window-width="640" inkscape:window-height="480" id="namedview4"/><g id="g10" inkscape:groupmode="layer" inkscape:label="Spigen" transform="matrix(1.3333333,0,0,-1.3333333,0,1440)"><g id="g12"><g id="g14" clip-path="url(#clipPath18)"><g id="g20" transform="translate(187.8008,566.6196)"><path d="m 0,0 c 0,-12.543 -10.168,-22.711 -22.711,-22.711 -12.543,0 -22.711,10.168 -22.711,22.711 0,12.542 10.168,22.711 22.711,22.711 C -10.168,22.711 0,12.542 0,0" style="fill:#f28d23;fill-opacity:1;fill-rule:nonzero;stroke:none" id="path22"/></g><g id="g24" transform="translate(233.2227,589.6333)"><path d="m 0,0 v -46.028 c 0,-7.86 6.372,-14.232 14.232,-14.232 h 92.964 V -80.246 H 0 v -29.07 h 120.217 c 7.86,0 14.232,6.372 14.232,14.233 v 47.844 c 0,7.86 -6.372,14.232 -14.232,14.232 H 25.436 v 21.803 h 98.111 l 9.085,25.436 H 14.232 C 6.372,14.232 0,7.86 0,0" style="fill:#414042;fill-opacity:1;fill-rule:nonzero;stroke:none" id="path26"/></g><g id="g28" transform="translate(391.291,589.6333)"><path d="m 0,0 v -154.738 h 25.436 v 143.534 h 81.759 V -80.246 H 58.14 l -10.901,-29.07 h 71.16 c 7.861,0 14.233,6.372 14.233,14.233 V 0 c 0,7.86 -6.372,14.232 -14.233,14.232 H 14.232 C 6.372,14.232 0,7.86 0,0" style="fill:#414042;fill-opacity:1;fill-rule:nonzero;stroke:none" id="path30"/></g><path d="m 574.795,480.317 h -27.253 v 123.548 h 27.253 z" style="fill:#414042;fill-opacity:1;fill-rule:nonzero;stroke:none" id="path32"/><g id="g34" transform="translate(596.5977,494.5498)"><path d="m 0,0 v 95.083 c 0,7.86 6.372,14.232 14.232,14.232 h 107.801 c 7.861,0 14.233,-6.372 14.233,-14.232 V -45.422 c 0,-7.86 -6.372,-14.232 -14.233,-14.232 h -71.16 l 9.084,25.436 h 49.056 V 82.063 H 29.07 V 13.021 H 85.394 L 76.309,-14.232 H 14.232 C 6.372,-14.232 0,-7.86 0,0" style="fill:#414042;fill-opacity:1;fill-rule:nonzero;stroke:none" id="path36"/></g><g id="g38" transform="translate(754.666,589.6333)"><path d="m 0,0 v -95.083 c 0,-7.861 6.372,-14.233 14.232,-14.233 h 85.697 l 10.9,29.07 H 29.07 v 69.042 h 79.943 V -33.007 H 49.056 V -60.26 h 71.161 c 7.86,0 14.232,6.372 14.232,14.232 V 0 c 0,7.86 -6.372,14.232 -14.232,14.232 H 14.232 C 6.372,14.232 0,7.86 0,0" style="fill:#414042;fill-opacity:1;fill-rule:nonzero;stroke:none" id="path40"/></g><g id="g42" transform="translate(912.7344,480.3174)"><path d="m 0,0 v 109.316 c 0,7.86 6.372,14.232 14.232,14.232 h 107.801 c 7.861,0 14.233,-6.372 14.233,-14.232 V 0 H 109.013 V 98.112 H 27.253 L 27.253,0 Z" style="fill:#414042;fill-opacity:1;fill-rule:nonzero;stroke:none" id="path44"/></g><g id="g46" transform="translate(120.7451,538.458)"><path d="m 0,0 v 0 c -3.105,0 -6.18,0.641 -8.989,1.964 -2.117,0.997 -4.657,2.429 -7.167,4.41 -12.969,10.238 -14.2,30.021 -2.41,41.597 4.025,3.952 9.88,7.217 18.397,8.352 v 0.046 c 0.304,-0.01 0.602,-0.046 0.909,-0.046 15.994,0 28.874,13.334 28.131,29.491 -0.66,14.341 -12.461,26.142 -26.801,26.801 -16.158,0.744 -29.492,-12.136 -29.492,-28.131 0,-1.785 0.185,-3.526 0.503,-5.22 l -0.012,-0.002 c 0,0 -5.942,-21.122 -29.561,-22.939 V 56.277 C -72.756,55.757 -85.548,41.482 -83.537,24.685 -81.831,10.439 -69.218,0 -54.871,0 c 3.979,0 7.935,-0.806 11.521,-2.53 6.406,-3.082 14.821,-9.621 15.928,-22.907 l 0.137,-0.018 c -0.085,-0.892 -0.137,-1.793 -0.137,-2.707 0,-15.553 12.609,-28.161 28.162,-28.161 16.608,0 29.858,14.377 27.984,31.364 C 27.139,-10.591 14.456,0 0,0" style="fill:#414042;fill-opacity:1;fill-rule:nonzero;stroke:none" id="path48"/></g></g></g></g></svg>