<?xml version="1.0" encoding="UTF-8" standalone="no"?>
<svg xmlns:dc="http://purl.org/dc/elements/1.1/" xmlns:cc="http://creativecommons.org/ns#" xmlns:rdf="http://www.w3.org/1999/02/22-rdf-syntax-ns#" xmlns:svg="http://www.w3.org/2000/svg" xmlns="http://www.w3.org/2000/svg" viewBox="0 0 1440 1440" height="1440" width="1440" xml:space="preserve" id="svg2" version="1.1"><metadata id="metadata8"><rdf:RDF><cc:Work rdf:about=""><dc:format>image/svg+xml</dc:format><dc:type rdf:resource="http://purl.org/dc/dcmitype/StillImage"/></cc:Work></rdf:RDF></metadata><defs id="defs6"><clipPath id="clipPath20" clipPathUnits="userSpaceOnUse"><path id="path18" d="M 0,1080 H 1080 V 0 H 0 Z"/></clipPath></defs><g transform="matrix(1.3333333,0,0,-1.3333333,0,1440)" id="g10"><path id="path12" style="fill:#ffffff;fill-opacity:1;fill-rule:nonzero;stroke:none" d="M 165.344,489.062 H 61.961 v 109.001 h 103.383 z"/><g id="g14"><g clip-path="url(#clipPath20)" id="g16"><g transform="translate(108.0054,531.4932)" id="g22"><path id="path24" style="fill:#ff6a08;fill-opacity:1;fill-rule:nonzero;stroke:none" d="m 0,0 c 0,4.299 0.053,8.599 -0.014,12.897 -0.076,4.948 -3.817,4.171 -6.898,4.219 -3.001,0.046 -6.302,0.404 -6.289,-4.201 0.025,-8.412 0.03,-16.824 -0.006,-25.236 -0.019,-4.628 3.29,-4.241 6.281,-4.184 3.053,0.058 6.835,-0.82 6.915,4.168 C 0.055,-8.226 0.002,-4.112 0,0 m 49.647,10.309 h -0.083 c 0,7.835 0.036,15.671 -0.022,23.506 -0.016,2.179 0.268,4.526 -2.686,5.447 -6.297,1.963 -9.573,-0.296 -9.619,-6.826 -0.023,-3.172 -0.007,-6.344 -0.005,-9.515 0.007,-11.567 0.058,-23.134 0.008,-34.7 -0.027,-6.265 4.617,-4.392 8.005,-4.745 3.807,-0.398 4.648,1.425 4.495,5.01 -0.31,7.263 -0.093,14.547 -0.093,21.823 m -87.668,1.465 c 0,-7.48 0.26,-14.972 -0.086,-22.436 -0.256,-5.506 2.72,-5.877 6.991,-5.968 4.579,-0.096 6.313,1.484 6.212,6.159 -0.24,11.029 0.046,22.067 -0.124,33.098 -0.066,4.313 1.516,6.109 5.898,5.965 6.351,-0.21 12.715,-0.015 19.073,-0.055 9.209,-0.059 12.405,-3.227 12.495,-12.545 0.087,-8.975 0.188,-17.956 -0.033,-26.927 -0.113,-4.614 2.039,-5.708 6.152,-5.673 3.99,0.032 6.38,0.874 6.305,5.572 -0.185,11.591 0.052,23.189 -0.109,34.781 -0.131,9.481 -5.941,15.462 -15.437,15.617 -14.022,0.228 -28.051,-0.002 -42.075,0.126 -3.834,0.035 -5.39,-1.406 -5.306,-5.274 0.163,-7.477 0.047,-14.959 0.044,-22.44 m -32.976,0.299 c -0.001,22.281 -0.019,44.563 0.008,66.844 0.01,8.391 1.91,10.324 10.186,10.327 44.562,0.019 89.125,0.017 133.687,0.002 8.218,-0.003 10.334,-2.039 10.342,-10.288 0.04,-45.125 0.036,-90.249 0.005,-135.373 -0.005,-7.982 -1.938,-9.833 -10.066,-9.836 -44.937,-0.018 -89.874,-0.018 -134.811,0.002 -7.548,0.003 -9.313,1.707 -9.33,9.232 -0.052,23.03 -0.019,46.06 -0.021,69.09"/></g><g transform="translate(780.9141,539.0562)" id="g26"><path id="path28" style="fill:#434343;fill-opacity:1;fill-rule:nonzero;stroke:none" d="m 0,0 c 0,20.405 0.024,40.81 -0.025,61.214 -0.007,3.155 0.201,5.975 3.655,7.411 23.12,9.616 46.704,16.18 72.063,10.901 8.878,-1.848 17.317,-4.923 24.58,-10.472 2.839,-2.168 4.796,-1.94 7.897,-0.252 23.359,12.715 47.791,17.806 73.246,7.101 15.378,-6.467 24.482,-18.561 24.648,-35.695 0.328,-33.879 0.044,-67.765 0.201,-101.647 0.023,-5.034 -2.124,-6.595 -6.737,-6.483 -6.548,0.157 -13.11,0.227 -19.652,-0.025 -5.2,-0.2 -6.789,2.072 -6.763,7.052 0.15,27.892 -0.914,55.829 0.348,83.665 1.238,27.3 -18.347,32.132 -37.188,28.513 -0.367,-0.071 -0.724,-0.187 -1.086,-0.283 -14.164,-3.737 -14.821,-4.583 -14.821,-19.017 0.001,-30.326 0.013,-60.652 -0.01,-90.979 -0.005,-8.231 -0.669,-8.85 -9.019,-8.891 -5.429,-0.028 -10.858,-0.026 -16.286,-0.001 -8.106,0.036 -8.378,0.31 -8.381,8.661 -0.011,28.642 0.018,57.283 -0.017,85.924 -0.02,17.041 -10.034,26.927 -27.089,26.404 -6.332,-0.194 -12.637,-1.086 -18.872,-2.533 -5.017,-1.164 -6.942,-3.584 -6.906,-8.941 0.226,-33.319 0.117,-66.642 0.11,-99.963 -10e-4,-9.275 -0.246,-9.524 -9.33,-9.552 -5.99,-0.02 -11.986,0.161 -17.969,-0.044 -4.881,-0.166 -6.551,1.949 -6.515,6.72 C 0.237,-40.809 0.148,-20.404 0.148,0 Z"/></g><g transform="translate(551.625,518.7832)" id="g30"><path id="path32" style="fill:#434343;fill-opacity:1;fill-rule:nonzero;stroke:none" d="m 0,0 c 0,5.044 -0.211,10.099 0.062,15.127 0.25,4.582 -1.69,6.452 -6.137,6.563 -10.845,0.274 -21.717,0.213 -32.404,-1.532 -8.585,-1.401 -17.401,-2.64 -24.7,-8.288 -12.837,-9.933 -11.006,-25.244 4.047,-31.258 18.289,-7.306 37.014,-5.31 55.723,-1.845 2.728,0.505 3.438,2.463 3.413,4.983 C -0.052,-10.834 -0.014,-5.416 0,0 m 31.949,7.848 c 0,-13.852 -0.149,-27.705 0.083,-41.553 0.078,-4.619 -1.337,-7.274 -5.918,-8.677 -23.035,-7.05 -46.547,-9.23 -70.467,-7.074 -11.957,1.078 -23.673,3.268 -34.744,8.346 -15.939,7.31 -24.293,20.073 -24.85,37.048 -0.55,16.76 7.959,29.252 22.519,37.416 14.191,7.955 29.879,10.901 45.79,12.034 10.02,0.713 20.135,1.806 30.232,0.652 3.254,-0.372 4.289,1.08 4.367,4.146 0.21,8.301 -5.405,16.39 -14.154,19.728 -10.392,3.964 -21.271,3.996 -32.129,3.331 -13.643,-0.835 -27.205,-2.453 -40.421,-6.168 -3.789,-1.065 -5.665,-0.17 -5.507,4.149 0.203,5.608 0.158,11.232 0.018,16.844 -0.091,3.656 1.597,5.382 5.044,6.208 24.88,5.964 49.784,9.937 75.527,5.445 C 16.032,94.715 30.831,78.682 31.781,49.4 32.23,35.563 31.858,21.7 31.858,7.849 31.889,7.848 31.919,7.848 31.949,7.848"/></g><g transform="translate(722.6006,544.3003)" id="g34"><path id="path36" style="fill:#434343;fill-opacity:1;fill-rule:nonzero;stroke:none" d="m 0,0 c 0,2.805 0.179,5.623 -0.028,8.413 -1.879,25.346 -13.116,38.808 -35.742,41.455 -20.624,2.412 -39.154,-7.377 -43.875,-29.977 -2.12,-10.15 -2.454,-20.293 -1.266,-30.646 2.529,-22.037 14.849,-40.633 43.326,-38.967 16.27,0.952 29.43,10.368 34.22,25.959 C -0.989,-16.031 0.437,-8.135 0,0 m -41.688,-75.925 c -22.079,0.494 -42.734,5.97 -58.061,24.27 -4.483,5.354 -7.996,11.281 -10.441,17.842 -7.417,19.897 -8.511,40.187 -3.021,60.637 6.735,25.086 23.339,40.406 48.338,46.563 20.973,5.165 41.687,3.899 61.618,-4.624 C 13.318,61.675 24.514,49.044 30.215,32.136 37.243,11.288 37.122,-9.923 29.9,-30.721 19.747,-59.959 -2.957,-72.77 -32.106,-75.479 c -2.978,-0.276 -5.98,-0.286 -9.582,-0.446"/></g><g transform="translate(235.0073,616.2993)" id="g38"><path id="path40" style="fill:#434343;fill-opacity:1;fill-rule:nonzero;stroke:none" d="m 0,0 c 14.151,3.713 22.655,-3.185 29.854,-14.572 6.379,-10.091 14.431,-19.111 21.35,-28.883 3.039,-4.292 4.775,-3.272 7.363,0.178 9.77,13.023 19.776,25.869 29.485,38.936 2.39,3.216 5.07,4.482 9.002,4.391 8.608,-0.198 17.224,-0.018 25.837,-0.056 1.406,-0.007 3.304,0.89 4.098,-0.783 0.876,-1.845 -0.955,-3.02 -1.949,-4.295 -15.99,-20.519 -31.923,-41.082 -48.077,-61.471 -2.47,-3.118 -2.437,-5.13 -0.039,-8.2 16.473,-21.095 32.78,-42.321 49.106,-63.531 1.22,-1.584 3.513,-3.2 2.631,-5.251 -1.057,-2.454 -3.945,-1.538 -6.082,-1.561 -8.238,-0.09 -16.479,0.073 -24.714,-0.083 -3.685,-0.07 -6.323,1.076 -8.589,4.121 -10.727,14.41 -21.742,28.608 -32.398,43.07 -2.496,3.389 -3.842,3.62 -6.412,0.21 -10.589,-14.049 -21.499,-27.856 -31.989,-41.977 -2.739,-3.689 -5.659,-5.547 -10.253,-5.429 -7.859,0.203 -15.727,0.02 -23.59,0.08 -1.808,0.014 -4.145,-0.629 -5.178,1.237 -1.118,2.018 1.041,3.387 2.107,4.762 13.303,17.156 26.679,34.256 40.029,51.376 3.222,4.133 6.127,8.562 9.713,12.349 3.201,3.382 2.521,5.738 -0.071,9.049 -15.804,20.191 -31.427,40.524 -47.073,60.839 -1.071,1.391 -3.426,2.609 -2.283,4.66 1.076,1.929 3.432,0.746 5.204,0.795 C -8.615,0.081 -4.306,0 0,0"/></g><g transform="translate(1048.8945,543.5908)" id="g42"><path id="path44" style="fill:#434343;fill-opacity:1;fill-rule:nonzero;stroke:none" d="m 0,0 c 0.001,-21.894 -0.14,-43.788 0.104,-65.679 0.058,-5.235 -1.799,-7.011 -6.823,-6.807 -6.352,0.257 -12.731,0.282 -19.081,-0.004 -5.329,-0.24 -7.254,1.803 -7.2,7.185 0.211,21.33 0.084,42.662 0.084,63.994 0,21.894 -0.009,43.787 0.005,65.68 0.005,8.303 0.029,8.311 8.55,8.324 5.988,0.01 11.986,-0.226 17.96,0.067 4.906,0.241 6.526,-1.643 6.484,-6.52 C -0.108,44.161 -0.001,22.08 0,0"/></g><g transform="translate(421.7476,544.1367)" id="g46"><path id="path48" style="fill:#434343;fill-opacity:1;fill-rule:nonzero;stroke:none" d="m 0,0 c 0.002,-21.521 0.011,-43.04 -0.003,-64.561 -0.005,-8.121 -0.281,-8.379 -8.629,-8.408 -5.802,-0.02 -11.611,0.198 -17.401,-0.055 -5.345,-0.236 -7.133,1.898 -7.107,7.27 0.181,37.238 0.095,74.478 0.095,111.717 0,6.737 0.163,13.478 -0.051,20.208 -0.137,4.314 1.483,6.136 5.867,6.017 6.919,-0.187 13.855,-0.253 20.768,0.028 4.887,0.199 6.572,-1.678 6.534,-6.534 C -0.099,43.789 -0.002,21.894 0,0"/></g></g></g></g></svg>